{
	"asset":{
		"generator":"Khronos glTF Blender I/O v4.3.47",
		"version":"2.0"
	},
	"scene":0,
	"scenes":[
		{
			"name":"Scene",
			"nodes":[
				4
			]
		}
	],
	"nodes":[
		{
			"mesh":0,
			"name":"Cone",
			"translation":[
				-0.2535076439380646,
				0,
				0
			]
		},
		{
			"mesh":1,
			"name":"Cube",
			"translation":[
				0.2711854875087738,
				0,
				0
			]
		},
		{
			"name":"GridMaterial"
		},
		{
			"mesh":2,
			"name":"Sphere"
		},
		{
			"children":[
				0,
				1,
				2,
				3
			],
			"name":"Root",
			"rotation":[
				0.70710688829422,
				0,
				0,
				0.7071066498756409
			]
		}
	],
	"materials":[
		{
			"doubleSided":true,
			"name":"Material.001",
			"pbrMetallicRoughness":{
				"baseColorFactor":[
					0.800039529800415,
					0.04838189482688904,
					0.11673837900161743,
					1
				],
				"metallicFactor":0,
				"roughnessFactor":0.5
			}
		},
		{
			"doubleSided":true,
			"name":"Material.003",
			"pbrMetallicRoughness":{
				"baseColorFactor":[
					0.02638961747288704,
					0.07001317292451859,
					0.8000156879425049,
					1
				],
				"metallicFactor":0,
				"roughnessFactor":0.5
			}
		},
		{
			"doubleSided":true,
			"name":"Material.002",
			"pbrMetallicRoughness":{
				"baseColorFactor":[
					0.06088615208864212,
					0.8000315427780151,
					0.0599924735724926,
					1
				],
				"metallicFactor":0,
				"roughnessFactor":0.5
			}
		}
	],
	"meshes":[
		{
			"name":"Cone",
			"primitives":[
				{
					"attributes":{
						"POSITION":0,
						"NORMAL":1
					},
					"indices":2,
					"material":0
				}
			]
		},
		{
			"name":"Cube.001",
			"primitives":[
				{
					"attributes":{
						"POSITION":3,
						"NORMAL":4
					},
					"indices":5,
					"material":1
				}
			]
		},
		{
			"name":"Sphere",
			"primitives":[
				{
					"attributes":{
						"POSITION":6,
						"NORMAL":7
					},
					"indices":8,
					"material":2
				}
			]
		}
	],
	"accessors":[
		{
			"bufferView":0,
			"componentType":5126,
			"count":31,
			"max":[
				0.09510565549135208,
				0.10000000149011612,
				0.10000000149011612
			],
			"min":[
				-0.09510564804077148,
				-0.10000000149011612,
				-0.10000000149011612
			],
			"type":"VEC3"
		},
		{
			"bufferView":1,
			"componentType":5126,
			"count":31,
			"type":"VEC3"
		},
		{
			"bufferView":2,
			"componentType":5123,
			"count":90,
			"type":"SCALAR"
		},
		{
			"bufferView":3,
			"componentType":5126,
			"count":24,
			"max":[
				0.10000000149011612,
				0.10000000149011612,
				0.10000000149011612
			],
			"min":[
				-0.10000000149011612,
				-0.10000000149011612,
				-0.10000000149011612
			],
			"type":"VEC3"
		},
		{
			"bufferView":4,
			"componentType":5126,
			"count":24,
			"type":"VEC3"
		},
		{
			"bufferView":5,
			"componentType":5123,
			"count":36,
			"type":"SCALAR"
		},
		{
			"bufferView":6,
			"componentType":5126,
			"count":92,
			"max":[
				0.10000000149011612,
				0.10000000149011612,
				0.09510564804077148
			],
			"min":[
				-0.10000000149011612,
				-0.10000000149011612,
				-0.09510565549135208
			],
			"type":"VEC3"
		},
		{
			"bufferView":7,
			"componentType":5126,
			"count":92,
			"type":"VEC3"
		},
		{
			"bufferView":8,
			"componentType":5123,
			"count":540,
			"type":"SCALAR"
		}
	],
	"bufferViews":[
		{
			"buffer":0,
			"byteLength":372,
			"byteOffset":0,
			"target":34962
		},
		{
			"buffer":0,
			"byteLength":372,
			"byteOffset":372,
			"target":34962
		},
		{
			"buffer":0,
			"byteLength":180,
			"byteOffset":744,
			"target":34963
		},
		{
			"buffer":0,
			"byteLength":288,
			"byteOffset":924,
			"target":34962
		},
		{
			"buffer":0,
			"byteLength":288,
			"byteOffset":1212,
			"target":34962
		},
		{
			"buffer":0,
			"byteLength":72,
			"byteOffset":1500,
			"target":34963
		},
		{
			"buffer":0,
			"byteLength":1104,
			"byteOffset":1572,
			"target":34962
		},
		{
			"buffer":0,
			"byteLength":1104,
			"byteOffset":2676,
			"target":34962
		},
		{
			"buffer":0,
			"byteLength":1080,
			"byteOffset":3780,
			"target":34963
		}
	],
	"buffers":[
		{
			"byteLength":4860,
			"uri":"scene.bin"
		}
	]
}
